<svg width="40" height="36" viewBox="0 0 40 36" fill="none" xmlns="http://www.w3.org/2000/svg">
<path d="M30.1062 4.51672C28.7064 4.11755 27.0306 4.22314 25.6696 4.8634L24.3338 5.49237C23.6429 4.21307 22.0731 3.98602 20.7812 3.94635V3.9375C20.7812 3.07599 21.4822 2.375 22.3438 2.375C22.7753 2.375 23.125 2.02527 23.125 1.59375C23.125 1.16223 22.7753 0.8125 22.3438 0.8125C20.6207 0.8125 19.2188 2.21448 19.2188 3.9375V3.95001C16.9397 4.03058 15.3125 4.71417 15.3125 7.0625C15.3125 7.80469 15.4901 8.66071 15.8093 9.49475L0.456543 16.508C0.179749 16.6346 0 16.9154 0 17.2188V34.4062C0 34.8378 0.349731 35.1875 0.78125 35.1875H39.2188C39.6503 35.1875 40 34.8378 40 34.4062V17.2188C40 11.4042 35.8572 6.1604 30.1062 4.51672ZM26.3348 6.27728C27.2971 5.8244 28.5849 5.70782 29.6774 6.0191C34.5715 7.41803 38.0643 11.6359 38.4091 16.4375H29.375C28.9435 16.4375 28.5938 16.7872 28.5938 17.2188C28.5938 17.6503 28.9435 18 29.375 18H38.4375V22.6967C38.0084 22.5673 37.6007 22.3448 37.2842 22.0564C35.5759 20.4985 33.096 20.4985 31.3876 22.0564C30.2716 23.0739 28.7128 23.0739 27.5967 22.0564C25.8798 20.4908 23.573 20.4908 21.8564 22.0564C20.7352 23.0784 19.3427 23.0784 18.2217 22.0564C16.5048 20.4908 14.198 20.4908 12.4814 22.0564C11.3654 23.0739 9.80652 23.0739 8.69049 22.0564C6.98212 20.4985 4.50226 20.4985 2.79419 22.0561C2.46063 22.36 2.01965 22.5908 1.5625 22.7165V18H23.125C23.5565 18 23.9062 17.6503 23.9062 17.2188C23.9062 16.7872 23.5565 16.4375 23.125 16.4375H4.37164L16.4987 10.8976C17.4356 12.4226 18.7091 13.3125 20 13.3125C22.6697 13.3125 24.6875 9.604 24.6875 7.0625C24.6875 7.05945 24.6872 7.05609 24.6872 7.05304L26.3348 6.27728ZM1.5625 24.319C2.40356 24.1716 3.21991 23.7819 3.84674 23.2109C4.96277 22.1931 6.52161 22.1931 7.63763 23.2109C9.34601 24.7688 11.8259 24.7688 13.5342 23.2109C14.6552 22.1885 16.048 22.1885 17.1689 23.2109C18.8855 24.7764 21.1923 24.7764 22.9092 23.2109C24.0302 22.1885 25.423 22.1885 26.5439 23.2109C28.2523 24.7688 30.7321 24.7688 32.4405 23.2109C33.5565 22.1931 35.1154 22.1931 36.2314 23.2109C36.8338 23.7602 37.6224 24.1447 38.4375 24.3037V27.3842C38.0084 27.2548 37.6007 27.0323 37.2842 26.7439C35.5759 25.186 33.096 25.186 31.3876 26.7439C30.2716 27.7614 28.7128 27.7614 27.5967 26.7439C25.8798 25.1783 23.573 25.1783 21.8564 26.7439C20.7352 27.7659 19.3427 27.7659 18.2217 26.7439C16.5048 25.1783 14.198 25.1783 12.4814 26.7439C11.3654 27.7614 9.80652 27.7614 8.69049 26.7439C6.98212 25.186 4.50226 25.186 2.79419 26.7436C2.46063 27.0475 2.01965 27.2783 1.5625 27.404V24.319ZM20 5.5C22.2388 5.5 22.963 5.77771 23.0994 6.68896V6.68958C23.3588 8.41962 21.72 11.75 20 11.75C18.374 11.75 16.875 8.8548 16.875 7.0625C16.875 5.90924 17.3471 5.5 20 5.5ZM1.5625 33.625V29.0065C2.40356 28.8591 3.21991 28.4694 3.84674 27.8984C4.96277 26.8806 6.52161 26.8806 7.63763 27.8984C9.34601 29.4563 11.8259 29.4563 13.5342 27.8984C14.6552 26.876 16.048 26.876 17.1689 27.8984C18.8855 29.4639 21.1923 29.4639 22.9092 27.8984C24.0302 26.876 25.423 26.876 26.5439 27.8984C28.2523 29.4563 30.7321 29.4563 32.4405 27.8984C33.5565 26.8806 35.1154 26.8806 36.2314 27.8984C36.8338 28.4477 37.6224 28.8322 38.4375 28.9912V33.625H1.5625Z" fill="white"/>
</svg>
