<svg width="14" height="14" viewBox="0 0 14 14" fill="none" xmlns="http://www.w3.org/2000/svg">
<g clip-path="url(#clip0)">
<path d="M4.46597 10.8894C3.65875 10.8894 3.00439 11.5438 3.00439 12.351C3.00439 13.1582 3.65878 13.8126 4.46597 13.8126C5.27319 13.8126 5.92754 13.1582 5.92754 12.351C5.92757 11.5438 5.27319 10.8894 4.46597 10.8894ZM4.46597 13.163C4.01752 13.163 3.65399 12.7995 3.65399 12.351C3.65399 11.9026 4.01752 11.539 4.46597 11.539C4.91442 11.539 5.27795 11.9026 5.27795 12.351C5.27798 12.7995 4.91442 13.163 4.46597 13.163Z" fill="#666565"/>
<path d="M10.6371 10.8894C9.82989 10.8894 9.17554 11.5438 9.17554 12.351C9.17554 13.1582 9.82992 13.8126 10.6371 13.8126C11.4443 13.8126 12.0987 13.1582 12.0987 12.351C12.0987 11.5438 11.4443 10.8894 10.6371 10.8894ZM10.6371 13.163C10.1887 13.163 9.82513 12.7995 9.82513 12.351C9.82513 11.9026 10.1887 11.539 10.6371 11.539C11.0856 11.539 11.4491 11.9026 11.4491 12.351C11.4491 12.7995 11.0856 13.163 10.6371 13.163Z" fill="#666565"/>
<path d="M13.9338 2.36351C13.8662 2.28963 13.7736 2.24337 13.674 2.23358L3.10183 2.08743L2.80951 1.19422C2.60358 0.597129 2.04444 0.19403 1.41287 0.187347H0.324798C0.145412 0.187347 0 0.332759 0 0.512145C0 0.691532 0.145412 0.836943 0.324798 0.836943H1.41287C1.76602 0.844745 2.07698 1.0715 2.1924 1.40535L4.25486 7.62521L4.09248 7.99872C3.91135 8.46579 3.96575 8.99148 4.23864 9.41159C4.50891 9.8242 4.96361 10.0788 5.45664 10.0937H11.774C11.9534 10.0937 12.0988 9.94825 12.0988 9.76887C12.0988 9.58948 11.9534 9.44407 11.774 9.44407H5.45661C5.17819 9.43711 4.9219 9.29064 4.77453 9.05431C4.62881 8.82086 4.59887 8.53327 4.69334 8.27478L4.82327 7.98246L11.6603 7.2679C12.4113 7.18519 13.029 6.63898 13.2031 5.90375L13.9826 2.63954C14.0177 2.54554 13.9991 2.43983 13.9338 2.36351ZM12.5697 5.75762C12.4643 6.23091 12.0624 6.58001 11.5791 6.61834L4.82327 7.31664L3.31295 2.73702L13.268 2.88318L12.5697 5.75762Z" fill="#666565"/>
</g>
<defs>
<clipPath id="clip0">
<rect width="14" height="14" fill="white"/>
</clipPath>
</defs>
</svg>
