<svg width="40" height="40" viewBox="0 0 40 40" fill="none" xmlns="http://www.w3.org/2000/svg">
<path d="M38.6666 10H15.8066C15.8861 7.61781 14.9102 5.32194 13.1399 3.726C9.12656 0.196 1.01589 0.0766671 0.673226 0.0733337C0.480324 0.0761142 0.29698 0.157788 0.165893 0.299334C0.0375555 0.445374 -0.0206371 0.640161 0.0065596 0.832667C0.0532263 1.17267 1.19923 9.206 5.20656 12.736C5.31856 12.8347 5.43256 12.9167 5.54523 13.006C5.22577 13.2075 4.92521 13.4376 4.64723 13.6933C1.51389 16.6133 0.785893 23.046 0.75656 23.3187C0.736112 23.5069 0.796657 23.6949 0.923086 23.8358C1.04951 23.9768 1.2299 24.0573 1.41923 24.0573H1.44456C1.71856 24.0467 8.18656 23.7653 11.3172 20.846C11.5649 20.6108 11.7932 20.356 11.9999 20.084V26.6667C12.0041 30.4505 14.1435 33.9079 17.5279 35.6C16.5987 36.0388 16.0043 36.9724 15.9999 38V38.6667C15.9999 39.403 16.5968 40 17.3332 40H34.6666C35.4029 40 35.9999 39.403 35.9999 38.6667V38C35.9955 36.9724 35.4011 36.0388 34.4719 35.6C36.4459 34.6062 38.0374 32.9895 38.9999 31C39.0235 30.9614 39.0432 30.9206 39.0586 30.878C39.6774 29.5602 39.9988 28.1225 39.9999 26.6667V11.3333C39.9999 10.597 39.4029 10 38.6666 10ZM6.08723 11.7333C3.14123 9.138 1.84989 3.516 1.46123 1.44C3.56989 1.56267 9.30856 2.132 12.2612 4.72733C13.7372 6.0747 14.5461 8.00287 14.4732 10H13.3332C13.0373 10.0012 12.7503 10.1019 12.5186 10.286L12.3659 10.1527L12.6006 7.16067C12.6295 6.79358 12.3553 6.47257 11.9882 6.44367C11.6211 6.41476 11.3001 6.68891 11.2712 7.056L11.1152 9.04867C10.7152 8.69622 10.3041 8.33422 9.88189 7.96267L10.1546 5.93333C10.1902 5.6954 10.0948 5.45673 9.90507 5.30883C9.71531 5.16093 9.46059 5.12674 9.23855 5.21938C9.01651 5.31201 8.86161 5.51709 8.83323 5.756L8.67856 6.90467C8.32256 6.59067 7.96389 6.27533 7.61189 5.966C7.33575 5.72189 6.914 5.74786 6.66989 6.024C6.42578 6.30014 6.45175 6.72189 6.72789 6.966C7.07723 7.276 7.43656 7.59267 7.79456 7.90733L6.67723 8.20533C6.32137 8.30014 6.10975 8.66548 6.20456 9.02133C6.29937 9.37719 6.66471 9.58881 7.02056 9.494L8.99989 8.96533C9.44434 9.35867 9.87901 9.74156 10.3039 10.114C10.0684 10.2642 9.95279 10.5464 10.0152 10.8187C10.0988 11.177 10.4568 11.3999 10.8152 11.3167L11.4886 11.16L11.9972 11.604V12.502C10.3621 11.906 8.57875 11.8509 6.90989 12.3447C6.61935 12.1638 6.34419 11.9594 6.08723 11.7333ZM10.4079 19.8667C8.23989 21.8893 3.97323 22.494 2.19989 22.662C2.48856 20.9027 3.38856 16.688 5.55589 14.6667C6.00387 14.2478 6.52739 13.918 7.09856 13.6947C7.73772 13.447 8.41776 13.3217 9.10323 13.3253C9.73072 13.3293 10.3551 13.4135 10.9612 13.576L9.69989 14.7527L7.42923 14.348C7.19136 14.298 6.94514 14.3814 6.78664 14.5657C6.62814 14.75 6.58249 15.0059 6.66751 15.2336C6.75253 15.4613 6.95474 15.6247 7.19523 15.66L8.48123 15.89L7.78656 16.5373L6.28189 16.1813C6.04897 16.1232 5.80279 16.1948 5.63738 16.3688C5.47197 16.5428 5.41287 16.7923 5.48265 17.022C5.55243 17.2517 5.74032 17.4261 5.97456 17.4787L6.61456 17.63L5.98189 18.2207C5.71256 18.472 5.69794 18.894 5.94923 19.1633C6.20052 19.4327 6.62256 19.4473 6.89189 19.196L7.52456 18.6053L7.63123 19.254C7.68409 19.576 7.96225 19.8124 8.28856 19.8127C8.32496 19.8127 8.3613 19.8098 8.39723 19.804C8.7604 19.7441 9.00631 19.4012 8.94656 19.038L8.69589 17.5127L9.39056 16.8653L9.52989 18.1633C9.5663 18.5016 9.85164 18.7582 10.1919 18.7587C10.2157 18.7586 10.2395 18.7573 10.2632 18.7547C10.6291 18.7155 10.8941 18.3873 10.8552 18.0213L10.6092 15.7287L11.8706 14.552C11.9391 14.9092 11.9823 15.2707 11.9999 15.634V16.2453C11.9787 17.6176 11.4047 18.9233 10.4079 19.8667ZM33.3332 36.6667C34.0696 36.6667 34.6666 37.2636 34.6666 38V38.6667H17.3332V38C17.3332 37.2636 17.9302 36.6667 18.6666 36.6667H33.3332ZM29.9999 35.3333H21.9999C17.4762 35.3264 13.7178 31.8434 13.3672 27.3333H32.6666C33.0348 27.3333 33.3332 27.0349 33.3332 26.6667C33.3332 26.2985 33.0348 26 32.6666 26H13.3332V19.3333H32.6666C33.0348 19.3333 33.3332 19.0349 33.3332 18.6667C33.3332 18.2985 33.0348 18 32.6666 18H13.3332V16.1333C13.3332 16 13.3372 15.8667 13.3332 15.7333V11.3333H38.6666L38.6666 14H18.6666C18.2984 14 17.9999 14.2985 17.9999 14.6667C17.9999 15.0349 18.2984 15.3333 18.6666 15.3333H38.6666V22H18.6666C18.2984 22 17.9999 22.2985 17.9999 22.6667C17.9999 23.0349 18.2984 23.3333 18.6666 23.3333H38.6666V26.6667C38.6678 27.811 38.4412 28.9441 37.9999 30H18.6666C18.2984 30 17.9999 30.2985 17.9999 30.6667C17.9999 31.0349 18.2984 31.3333 18.6666 31.3333H37.2912C35.7017 33.8226 32.9534 35.3304 29.9999 35.3333Z" fill="white"/>
<path d="M19.9858 7.43067C19.7824 7.55476 19.6607 7.77793 19.6664 8.01613C19.6722 8.25433 19.8046 8.47136 20.0138 8.58547C20.223 8.69957 20.4771 8.69342 20.6805 8.56933C21.4898 8.03524 21.9835 7.1362 21.9998 6.16667C21.9848 5.199 21.4934 4.30103 20.6865 3.76667C20.2678 3.47893 20.0125 3.00788 19.9998 2.5C20.0121 1.99218 20.2672 1.52107 20.6858 1.23333C20.9811 1.03278 21.0661 0.63521 20.8785 0.331507C20.6909 0.027804 20.2974 -0.0742552 19.9858 0.0999995C19.1773 0.633565 18.6837 1.53141 18.6665 2.5C18.6816 3.46767 19.173 4.36563 19.9798 4.9C20.3985 5.18774 20.6539 5.65878 20.6665 6.16667C20.6548 6.67259 20.4018 7.14239 19.9858 7.43067Z" fill="white"/>
<path d="M25.3193 7.43067C25.0049 7.62249 24.9055 8.0329 25.0973 8.34733C25.2892 8.66177 25.6996 8.76116 26.014 8.56933C26.8233 8.03524 27.317 7.1362 27.3333 6.16667C27.3183 5.199 26.8269 4.30103 26.02 3.76667C25.6013 3.47893 25.3459 3.00788 25.3333 2.5C25.3456 1.99218 25.6007 1.52107 26.0193 1.23333C26.3146 1.03278 26.3996 0.63521 26.212 0.331507C26.0244 0.027804 25.6309 -0.0742552 25.3193 0.0999995C24.5108 0.633565 24.0172 1.53141 24 2.5C24.0151 3.46767 24.5065 4.36563 25.3133 4.9C25.732 5.18774 25.9874 5.65878 26 6.16667C25.9882 6.67259 25.7353 7.14239 25.3193 7.43067Z" fill="white"/>
<path d="M30.6526 7.43067C30.3382 7.62249 30.2388 8.0329 30.4306 8.34733C30.6224 8.66177 31.0328 8.76116 31.3473 8.56933C32.1566 8.03524 32.6503 7.1362 32.6666 6.16667C32.6515 5.199 32.1601 4.30103 31.3533 3.76667C30.9346 3.47893 30.6792 3.00788 30.6666 2.5C30.6788 1.99218 30.934 1.52107 31.3526 1.23333C31.6479 1.03278 31.7328 0.63521 31.5452 0.331507C31.3576 0.027804 30.9641 -0.0742552 30.6526 0.0999995C29.844 0.633565 29.3505 1.53141 29.3333 2.5C29.3483 3.46767 29.8397 4.36563 30.6466 4.9C31.0653 5.18774 31.3206 5.65878 31.3333 6.16667C31.3215 6.67259 31.0685 7.14239 30.6526 7.43067Z" fill="white"/>
</svg>
