<svg width="34" height="34" viewBox="0 0 34 34" fill="none" xmlns="http://www.w3.org/2000/svg">
    <g clip-path="url(#clip0)">
        <path d="M27.9164 26.1014V27.2875C27.9164 27.5626 28.1393 27.7855 28.4144 27.7855C28.6895 27.7855 28.9125 27.5626 28.9125 27.2875V26.1014C28.9125 25.8263 28.6895 25.6034 28.4144 25.6034C28.1393 25.6034 27.9164 25.8263 27.9164 26.1014Z" fill="black"/>
        <path d="M33.502 21.9281H26.445C26.0259 21.9281 25.6851 22.269 25.6851 22.688V23.1628H23.5621C23.0173 23.1628 22.5591 23.5354 22.4254 24.0387L20.0932 23.3852C19.9177 23.336 19.8055 23.1629 19.832 22.9827L20.3068 19.763C20.3458 19.499 20.3149 19.2332 20.2223 18.9895H24.2204C25.2642 18.9895 26.1133 18.1403 26.1133 17.0966V15.6405C26.1133 15.3654 25.8904 15.1425 25.6153 15.1425H24.2072V14.4024C24.2072 9.02427 19.9449 4.6236 14.6209 4.39928V4.10324C14.6209 3.24075 13.9192 2.53897 13.0567 2.53897C12.1941 2.53897 11.4924 3.24069 11.4924 4.10324V4.39928C10.1279 4.45565 8.81543 4.78211 7.58505 5.37372C7.33716 5.49292 7.23284 5.79049 7.35204 6.03838C7.47123 6.28628 7.76873 6.39047 8.0167 6.2714C9.23904 5.68364 10.552 5.38561 11.9189 5.38561H14.1944C19.1662 5.38561 23.2111 9.43048 23.2111 14.4023V15.1424H2.90222V14.4023C2.90222 11.5889 4.181 8.98702 6.41066 7.26384C6.62827 7.09564 6.66838 6.78286 6.50024 6.56518C6.33204 6.34757 6.01926 6.30753 5.80158 6.4756C3.32596 8.3889 1.90613 11.278 1.90613 14.4023V15.1423H0.498047C0.222926 15.1423 0 15.3653 0 15.6404V17.0964C0 18.1402 0.849137 18.9893 1.89291 18.9893H5.41251C5.25818 19.4849 5.38309 20.0099 5.75477 20.3878L8.1934 22.867C9.76803 24.4678 11.5787 25.8006 13.5754 26.8281C15.572 27.8556 17.7088 28.5546 19.9268 28.9056L22.4124 29.2989C22.5276 29.8281 22.9991 30.2258 23.5623 30.2258H25.6853V30.7007C25.6853 31.1198 26.0261 31.4606 26.4451 31.4606H28.8475C29.1226 31.4606 29.3455 31.2377 29.3455 30.9626C29.3455 30.6875 29.1226 30.4645 28.8475 30.4645H26.6814V22.9242H33.0039V30.4648H30.8387C30.5635 30.4648 30.3406 30.6877 30.3406 30.9628C30.3406 31.238 30.5635 31.4609 30.8387 31.4609H33.502C33.7771 31.4609 34 31.238 34 30.9628V22.4261C34 22.151 33.7771 21.9281 33.502 21.9281ZM13.0567 3.5352C13.37 3.5352 13.6248 3.79006 13.6248 4.10337V4.38971H12.4886V4.10337C12.4885 3.79006 12.7434 3.5352 13.0567 3.5352ZM0.996094 17.0966V16.1386H25.1172V17.0966C25.1172 17.5911 24.7149 17.9934 24.2204 17.9934H15.3605C15.0854 17.9934 14.8624 18.2164 14.8624 18.4915C14.8624 18.7666 15.0854 18.9895 15.3605 18.9895H17.2973L15.5828 21.6845C15.3405 22.0653 14.84 22.1947 14.4437 21.979L8.94745 18.9895H13.3691C13.6442 18.9895 13.8672 18.7666 13.8672 18.4915C13.8672 18.2164 13.6442 17.9934 13.3691 17.9934H1.89291C1.39845 17.9934 0.996094 17.5911 0.996094 17.0966ZM14.0311 25.9425C12.1288 24.9636 10.4037 23.6938 8.90342 22.1686L6.46478 19.6894C6.1358 19.3549 6.5373 18.8124 6.95459 19.0395L13.9678 22.854C14.8223 23.3188 15.901 23.04 16.4233 22.2191L18.3164 19.2435C18.6326 18.7465 19.4072 19.0357 19.3214 19.6177L18.8466 22.8374C18.7471 23.5123 19.1674 24.1601 19.8245 24.3443L22.3849 25.0617V28.2862L20.0824 27.9218C17.9693 27.5875 15.9334 26.9215 14.0311 25.9425ZM23.5621 29.2299C23.4622 29.2299 23.3809 29.1486 23.3809 29.0487V24.3403C23.3809 24.2403 23.4623 24.1591 23.5621 24.1591H25.6851V29.23H23.5621V29.2299Z" fill="black"/>
    </g>
    <defs>
        <clipPath id="clip0">
            <rect width="34" height="34" fill="white"/>
        </clipPath>
    </defs>
</svg>
