<svg width="40" height="40" viewBox="0 0 40 40" fill="none" xmlns="http://www.w3.org/2000/svg">
<path d="M0.625645 23.1262C0.785645 23.1262 0.945645 23.065 1.06752 22.9431L6.39877 17.6119L8.75752 38.8188C8.79315 39.1356 9.06002 39.375 9.37877 39.375H30.62C30.9388 39.375 31.2063 39.1356 31.2413 38.8188L33.6 17.6119L38.9313 22.9431C39.0531 23.065 39.2132 23.1262 39.3731 23.1262C39.5331 23.1262 39.6931 23.065 39.815 22.9431C40.0594 22.6987 40.0594 22.3037 39.815 22.0594L33.5644 15.8094C33.5275 15.7731 33.4831 15.7531 33.4413 15.7275C33.4156 15.7125 33.395 15.6906 33.3681 15.6788C33.2894 15.645 33.2063 15.6263 33.1225 15.6263C33.1219 15.6263 33.1219 15.6263 33.1219 15.6263H32.4719C32.1494 11.4369 28.645 8.125 24.3744 8.125C22.8056 8.125 21.3025 8.57125 19.995 9.40938C18.7319 8.60063 17.235 8.125 15.6269 8.125C11.3556 8.125 7.85065 11.4369 7.5269 15.6263H6.8769C6.8769 15.6263 6.8769 15.6263 6.87627 15.6263C6.79252 15.6263 6.7094 15.645 6.63065 15.6788C6.60377 15.6906 6.58315 15.7119 6.55752 15.7275C6.51565 15.7531 6.47065 15.7731 6.4344 15.8094L0.18377 22.0594C-0.0606055 22.3037 -0.0606055 22.6987 0.18377 22.9431C0.305645 23.065 0.465645 23.1262 0.625645 23.1262ZM18.0419 15.6263C17.7613 14.55 16.7894 13.75 15.6263 13.75C14.4631 13.75 13.4913 14.55 13.2106 15.6263H12.5588C12.8519 14.2006 14.1156 13.125 15.6269 13.125C17.1375 13.125 18.4013 14.2006 18.6938 15.6263H18.0419ZM16.7063 15.6263H14.5456C14.7638 15.2538 15.1644 15 15.6263 15C16.0881 15 16.4888 15.2538 16.7063 15.6263ZM19.9569 15.6263C19.6494 13.5088 17.8275 11.875 15.6269 11.875C13.425 11.875 11.6031 13.5088 11.2956 15.6263H10.6638C10.9756 13.1631 13.08 11.25 15.6269 11.25C18.1731 11.25 20.2769 13.1631 20.5881 15.6263H19.9569ZM9.97065 16.8763C9.9794 16.8763 9.98627 16.8813 9.99502 16.8813C10.0038 16.8813 10.0106 16.8769 10.0194 16.8763H11.8456C11.8544 16.8763 11.8613 16.8813 11.87 16.8813C11.8788 16.8813 11.8856 16.8769 11.8944 16.8763H13.7206C13.7294 16.8763 13.7363 16.8813 13.745 16.8813C13.7538 16.8813 13.7606 16.8769 13.7694 16.8763H17.4825C17.4913 16.8763 17.4981 16.8813 17.5069 16.8813C17.5156 16.8813 17.5225 16.8769 17.5313 16.8763H19.3575C19.3663 16.8763 19.3731 16.8813 19.3819 16.8813C19.3906 16.8813 19.3975 16.8769 19.4063 16.8763H21.2325C21.2413 16.8763 21.2481 16.8813 21.2569 16.8813C21.2656 16.8813 21.2725 16.8769 21.2813 16.8763H23.1075C23.1163 16.8763 23.1231 16.8813 23.1319 16.8813C23.1406 16.8813 23.1475 16.8769 23.1563 16.8763H26.23C26.2388 16.8763 26.2456 16.8813 26.2544 16.8813C26.2631 16.8813 26.27 16.8769 26.2788 16.8763H28.105C28.1138 16.8763 28.1206 16.8813 28.1294 16.8813C28.1381 16.8813 28.145 16.8769 28.1538 16.8763H29.98C29.9888 16.8763 29.9956 16.8813 30.0044 16.8813C30.0131 16.8813 30.02 16.8769 30.0288 16.8763H31.6144L26.6138 21.8762H20.0719C20.0481 21.8762 20.0244 21.8725 20 21.8725C19.9756 21.8725 19.9519 21.8762 19.9281 21.8762H13.3863L8.38565 16.8763H9.97065ZM26.7894 15.6263C26.5088 14.55 25.5369 13.75 24.3738 13.75C24.04 13.75 23.7156 13.815 23.4163 13.9388C23.3569 13.74 23.2863 13.5456 23.2125 13.3531C23.5806 13.2062 23.9731 13.125 24.3744 13.125C25.885 13.125 27.1488 14.2006 27.4413 15.6263H26.7894ZM28.7044 15.6263C28.3975 13.5088 26.5756 11.875 24.3744 11.875C23.7875 11.875 23.2113 11.995 22.6756 12.2206C22.5694 12.0369 22.4613 11.855 22.3425 11.6806C22.9788 11.3981 23.67 11.25 24.3744 11.25C26.9206 11.25 29.0244 13.1631 29.3356 15.6263H28.7044ZM23.6819 15.2075C23.8856 15.0731 24.1244 15 24.3738 15C24.8356 15 25.2363 15.2538 25.4544 15.6263H23.7256C23.7144 15.4856 23.7 15.3463 23.6819 15.2075ZM20.0719 23.1262C23.14 23.165 25.625 25.67 25.625 28.7475C25.625 31.8494 23.1019 34.3725 20 34.3725C16.8981 34.3725 14.375 31.8494 14.375 28.7475C14.375 25.67 16.86 23.165 19.9281 23.1262H20.0719ZM30.0619 38.125H9.93815L7.6944 17.9531L12.6844 22.9425C12.7419 23.0006 12.8113 23.0462 12.8881 23.0781C12.9644 23.11 13.0456 23.1262 13.1269 23.1262H16.0544C14.2856 24.3713 13.125 26.4244 13.125 28.7475C13.125 32.5381 16.2094 35.6225 20 35.6225C23.7906 35.6225 26.875 32.5381 26.875 28.7475C26.875 26.4244 25.7144 24.3713 23.945 23.1262H26.8731C26.9544 23.1262 27.0356 23.11 27.1119 23.0781C27.1888 23.0462 27.2581 23.0006 27.3156 22.9425L32.305 17.9537L30.0619 38.125ZM24.3744 9.375C27.9556 9.375 30.9031 12.1263 31.2231 15.6263H30.5981C30.2813 12.4713 27.6113 10 24.3744 10C23.3819 10 22.4163 10.2475 21.5406 10.6938C21.3881 10.5313 21.2288 10.3769 21.0631 10.2275C22.0731 9.67063 23.2019 9.375 24.3744 9.375ZM15.6269 9.375C19.2081 9.375 22.1556 12.1263 22.4756 15.6263H21.8506C21.5338 12.4713 18.8638 10 15.6269 10C12.3894 10 9.7194 12.4713 9.4019 15.6263H8.7769C9.0969 12.1263 12.0444 9.375 15.6269 9.375Z" fill="white"/>
<path d="M14.9132 5.39C14.8651 5.6 14.7195 5.69 14.7195 5.69125C14.4107 5.84563 14.2857 6.22125 14.4401 6.53C14.5501 6.74875 14.7707 6.875 15.0001 6.875C15.0939 6.875 15.1895 6.85375 15.2789 6.80938C15.3439 6.77688 15.9195 6.47063 16.1164 5.73C16.297 5.05125 16.0964 4.26875 15.5195 3.40375C15.1689 2.87813 15.0145 2.41875 15.0857 2.11063C15.1326 1.90813 15.2695 1.81688 15.2932 1.80187C15.592 1.64312 15.7107 1.27437 15.5589 0.970625C15.4039 0.66125 15.0295 0.536249 14.7201 0.69125C14.6551 0.72375 14.0795 1.03 13.8826 1.77062C13.702 2.44938 13.9026 3.23188 14.4795 4.09688C14.8301 4.6225 14.9845 5.08125 14.9132 5.39Z" fill="white"/>
<path d="M19.9137 5.39C19.8656 5.6 19.72 5.69 19.72 5.69125C19.4112 5.84563 19.2862 6.22125 19.4406 6.53C19.5506 6.74875 19.7712 6.875 20.0006 6.875C20.0943 6.875 20.19 6.85375 20.2793 6.80938C20.3444 6.77688 20.92 6.47063 21.1169 5.73C21.2975 5.05125 21.0969 4.26875 20.52 3.40375C20.1694 2.87813 20.015 2.41875 20.0862 2.11063C20.1331 1.90813 20.27 1.81688 20.2937 1.80187C20.5925 1.64312 20.7112 1.27437 20.5594 0.970625C20.4044 0.66125 20.0293 0.536249 19.7206 0.69125C19.6556 0.72375 19.08 1.03 18.8831 1.77062C18.7025 2.44938 18.9031 3.23188 19.48 4.09688C19.8306 4.6225 19.985 5.08125 19.9137 5.39Z" fill="white"/>
<path d="M24.9145 5.39C24.8663 5.6 24.7207 5.69 24.7207 5.69125C24.412 5.84563 24.287 6.22125 24.4413 6.53C24.5513 6.74875 24.772 6.875 25.0013 6.875C25.0951 6.875 25.1907 6.85375 25.2801 6.80938C25.3451 6.77688 25.9207 6.47063 26.1176 5.73C26.2982 5.05125 26.0976 4.26875 25.5207 3.40375C25.1701 2.87813 25.0157 2.41875 25.087 2.11063C25.1338 1.90813 25.2707 1.81688 25.2945 1.80187C25.5932 1.64312 25.712 1.27437 25.5601 0.970625C25.4051 0.66125 25.0301 0.536249 24.7213 0.69125C24.6563 0.72375 24.0807 1.03 23.8838 1.77062C23.7032 2.44938 23.9038 3.23188 24.4807 4.09688C24.8307 4.6225 24.9857 5.08125 24.9145 5.39Z" fill="white"/>
<path d="M16.875 28.7475C16.875 30.4706 18.2769 31.8725 20 31.8725C21.7231 31.8725 23.125 30.4706 23.125 28.7475C23.125 27.0244 21.7231 25.6225 20 25.6225C18.2769 25.6225 16.875 27.0244 16.875 28.7475ZM21.875 28.7475C21.875 29.7812 21.0338 30.6225 20 30.6225C18.9662 30.6225 18.125 29.7812 18.125 28.7475C18.125 27.7137 18.9662 26.8725 20 26.8725C21.0338 26.8725 21.875 27.7137 21.875 28.7475Z" fill="white"/>
</svg>
