<svg width="40" height="40" viewBox="0 0 40 40" fill="none" xmlns="http://www.w3.org/2000/svg">
<path d="M33.6184 20.2058V21.0812C33.6184 21.5499 33.5915 22.0213 33.5386 22.4823L34.7028 22.6161C34.7608 22.1109 34.7903 21.5945 34.7903 21.0812V20.2058H33.6184Z" fill="white"/>
<path d="M33.4023 23.3706C32.6864 27.0988 30.1562 30.3044 26.634 31.9457L27.129 33.0079C29.0128 32.1301 30.6831 30.8203 31.9594 29.2203C33.263 27.5858 34.1599 25.6395 34.5531 23.5916L33.4023 23.3706Z" fill="white"/>
<path d="M23.8837 36.2439H22.147V37.4158H23.8837V36.2439Z" fill="white"/>
<path d="M21.3767 36.2439H12.8884V37.4158H21.3767V36.2439Z" fill="white"/>
<path d="M0 18.3639V21.2133C0 27.8256 4.25853 33.5172 10.6432 35.5106V39.1708H26.1292V35.5106C32.514 33.5172 36.7726 27.8256 36.7726 21.2133V18.3639H0ZM35.6007 21.2134C35.6007 27.4417 31.495 32.785 25.3842 34.5097L24.9574 34.6301V37.9989H11.8151V35.6595H21.7818V34.4876H11.313C7.61987 33.4244 4.66619 31.0368 2.91962 27.9324H9.07519V26.7606H2.33345C1.58133 25.0568 1.17188 23.1792 1.17188 21.2133V19.5358H26.6598V22.1658H27.8317V19.5358H35.6007V21.2134Z" fill="white"/>
<path d="M18.3863 21.5334L13.4329 26.4868L18.3863 31.4403L23.3398 26.4868L18.3863 21.5334ZM15.0901 26.4868L18.3863 23.1906L21.6825 26.4868L18.3863 29.783L15.0901 26.4868Z" fill="white"/>
<path d="M39.7952 6.14659C39.6531 5.99557 39.4527 5.90901 39.2455 5.90901H36.777C31.8996 5.90901 27.1996 7.68613 23.5426 10.913C23.4414 11.0024 23.3113 11.0515 23.1763 11.0515H14.2633C14.0274 11.0515 13.8116 11.1707 13.686 11.3704C13.5604 11.5701 13.5464 11.8163 13.6487 12.029L14.0417 12.8465C15.3299 15.5255 18.0831 17.2566 21.0557 17.2566C23.8509 17.2566 26.4235 15.621 27.6094 13.0898C27.9871 12.2839 28.6133 11.6102 29.3726 11.1929C30.8424 10.3854 32.5057 9.95856 34.1825 9.95856H36.5415C38.3686 9.95856 39.8871 8.53129 39.9986 6.70902C40.0113 6.50245 39.9371 6.29745 39.7952 6.14659ZM36.5416 8.78668H34.1827C32.3091 8.78668 30.4506 9.26356 28.8084 10.1658C27.819 10.7095 27.0376 11.5486 26.5484 12.5926C25.5544 14.714 23.3985 16.0847 21.0557 16.0847C18.5307 16.0847 16.1921 14.6143 15.0978 12.3386L15.0424 12.2233H23.1761C23.5969 12.2233 24.0024 12.0701 24.3178 11.7918C27.7605 8.75387 32.1853 7.08089 36.777 7.08089H38.758C38.4979 8.06629 37.5977 8.78668 36.5416 8.78668Z" fill="white"/>
<path d="M24.556 12.2C24.4517 12.4223 24.3267 12.6357 24.1841 12.8343L25.1361 13.5176C25.3206 13.2606 25.4824 12.9847 25.6171 12.6973L24.556 12.2Z" fill="white"/>
<path d="M23.8666 13.2228C23.1139 14.033 22.0479 14.4977 20.9421 14.4977V15.6696C22.3727 15.6696 23.7515 15.0685 24.7252 14.0204L23.8666 13.2228Z" fill="white"/>
<path d="M22.1272 3.87767C22.1272 3.31072 22.3177 3.0565 22.5812 2.70478C22.8877 2.29564 23.2692 1.78649 23.2692 0.829224H22.0973C22.0973 1.39618 21.9068 1.6504 21.6433 2.00212C21.3368 2.41126 20.9553 2.9204 20.9553 3.87767C20.9553 4.83502 21.3368 5.34416 21.6433 5.75338C21.9068 6.10526 22.0973 6.35948 22.0973 6.92651C22.0973 7.49363 21.9068 7.74785 21.6433 8.09972C21.3367 8.50894 20.9553 9.01816 20.9553 9.97543H22.1272C22.1272 9.40832 22.3177 9.1541 22.5812 8.80222C22.8877 8.39308 23.2692 7.88386 23.2692 6.92651C23.2692 5.96924 22.8877 5.46002 22.5812 5.05088C22.3177 4.699 22.1272 4.44478 22.1272 3.87767Z" fill="white"/>
<path d="M19.1035 0.8293H17.9316C17.9316 1.39626 17.7411 1.6504 17.4776 2.0022C17.171 2.41126 16.7896 2.92048 16.7896 3.87775C16.7896 4.39346 16.8963 4.82416 17.1257 5.23346L18.1481 4.66064C18.0612 4.50564 17.9614 4.2765 17.9614 3.87775C17.9614 3.31079 18.1519 3.05665 18.4154 2.70485C18.722 2.29579 19.1035 1.78657 19.1035 0.8293Z" fill="white"/>
<path d="M18.7676 5.57127L17.7451 6.14393C17.8319 6.29886 17.9316 6.52792 17.9316 6.92659C17.9316 7.4937 17.7411 7.74792 17.4775 8.09972C17.171 8.50894 16.7896 9.01816 16.7896 9.97551H17.9614C17.9614 9.4084 18.1519 9.15418 18.4155 8.8023C18.722 8.39324 19.1035 7.88394 19.1035 6.92659C19.1035 6.41104 18.9967 5.98042 18.7676 5.57127Z" fill="white"/>
</svg>
