<svg width="40" height="40" viewBox="0 0 40 40" fill="none" xmlns="http://www.w3.org/2000/svg">
<g clip-path="url(#clip0)">
<path d="M18.7852 30.1254C18.4617 30.1254 18.1992 30.3878 18.1992 30.7113V31.6839C18.1992 32.0077 18.4617 32.2699 18.7852 32.2699C19.1089 32.2699 19.3711 32.0077 19.3711 31.6839V30.7113C19.3711 30.3878 19.1089 30.1254 18.7852 30.1254Z" fill="white"/>
<path d="M11.3772 30.1254C11.0537 30.1254 10.7913 30.3878 10.7913 30.7113V31.6839C10.7913 32.0077 11.0537 32.2699 11.3772 32.2699C11.701 32.2699 11.9631 32.0077 11.9631 31.6839V30.7113C11.9634 30.3878 11.701 30.1254 11.3772 30.1254Z" fill="white"/>
<path d="M16.2931 30.9307C16.1939 30.8654 15.7553 30.6967 15.4816 31.0986C15.3501 31.2915 15.159 31.3147 15.0812 31.3147C15.0037 31.3147 14.809 31.2936 14.6811 31.0986C14.5032 30.8282 14.14 30.7528 13.8696 30.9307C13.599 31.1084 13.5239 31.4715 13.7015 31.7419C14.0079 32.2082 14.5236 32.4865 15.0812 32.4865C15.6391 32.4865 16.1548 32.2082 16.4609 31.7419C16.6388 31.4715 16.5634 31.1084 16.2931 30.9307Z" fill="white"/>
<path d="M12.3868 24.8026C12.6725 24.9539 13.0274 24.8453 13.1791 24.5593C13.3308 24.2734 13.2218 23.9188 12.9359 23.7671C12.5031 23.5379 12.2449 23.2517 12.2449 23.0017C12.2449 22.7515 12.5031 22.4655 12.9359 22.236C13.491 21.9415 14.2731 21.7728 15.0812 21.7728C15.8897 21.7728 16.6715 21.9415 17.2269 22.236C17.6594 22.4655 17.9179 22.7515 17.9179 23.0017C17.9179 23.2517 17.6594 23.5379 17.2269 23.7671C16.6715 24.0616 15.8897 24.2307 15.0812 24.2307C14.7578 24.2307 14.4953 24.4928 14.4953 24.8166C14.4953 25.1401 14.7578 25.4025 15.0812 25.4025C17.3664 25.4025 19.0897 24.3701 19.0897 23.0017C19.0897 21.633 17.3664 20.6009 15.0812 20.6009C12.7961 20.6009 11.0728 21.633 11.0728 23.0017C11.0728 23.7137 11.5394 24.353 12.3868 24.8026Z" fill="white"/>
<path d="M37.685 15.9616C34.9582 14.1086 31.7743 13.129 28.4772 13.129C27.6349 13.129 26.8002 13.1934 25.9787 13.3194L29.3738 10.7019C30.2417 10.033 30.4212 8.81135 29.7827 7.92115C29.144 7.03065 27.9294 6.80909 27.0172 7.41639L25.0165 8.7494L26.3977 6.78163C27.0273 5.88502 26.8353 4.66523 25.9607 4.00513C25.0864 3.34473 23.8605 3.49457 23.1705 4.34571L13.2437 16.5912L10.6756 18.3017C8.99534 18.7882 7.51127 20.1078 7.05747 20.712L1.37722 24.4956C0.673793 24.964 0.202906 25.68 0.0512332 26.5113C-0.100439 27.3429 0.0872441 28.1788 0.579799 28.8654C1.07235 29.5524 1.85788 30.1255 3.08041 30.1539C3.056 31.1329 3.49911 32.0737 4.30905 32.6865C5.50992 33.5953 6.68332 33.2782 6.93815 33.2126C7.39652 33.8819 8.07645 34.4901 8.95536 35.0043C10.6009 35.9669 12.7765 36.4969 15.0812 36.4969C17.3859 36.4969 19.5615 35.9669 21.2073 35.0043C22.3056 34.3619 23.093 33.5724 23.5257 32.7002C23.8455 32.8138 25.1453 33.2563 26.2939 32.2989C26.4148 32.1982 26.5851 32.2062 26.712 32.2989C27.2275 32.6752 27.8378 32.8742 28.4772 32.8742C29.1165 32.8742 29.7269 32.6752 30.242 32.2989C30.3693 32.2062 30.5332 32.2065 30.6604 32.2989C31.1755 32.6752 31.7859 32.8742 32.4256 32.8742C33.6072 32.8742 34.6817 32.1769 35.1636 31.0975C35.2194 30.972 35.3375 30.8909 35.4715 30.886C36.3263 30.8539 37.1283 30.4578 37.6721 29.7986C38.2114 29.1449 38.4491 28.2889 38.324 27.45C38.3045 27.3185 38.3597 27.1894 38.4717 27.1048C39.2215 26.5378 39.6558 25.6742 39.6625 24.7354C39.6665 24.169 39.5041 23.6176 39.1989 23.1394C40.6955 20.7434 40.0412 17.5629 37.685 15.9616ZM28.6786 14.3027C29.1959 15.4691 29.4071 16.7548 29.2883 18.0438C29.2465 18.4973 28.8437 18.8318 28.3902 18.7906C28.382 18.7897 27.5815 18.6801 27.644 17.8845C27.7426 16.6364 27.4637 15.426 26.8543 14.3872C27.3908 14.3302 28.6115 14.3018 28.6786 14.3027ZM25.5789 14.578C26.2503 15.4917 26.568 16.6199 26.4758 17.7927C26.3678 19.1611 27.1951 19.9658 28.4674 19.9658C29.487 19.9658 30.3601 19.1861 30.4553 18.1513C30.5744 16.861 30.4062 15.5725 29.9701 14.3741C30.8307 14.458 31.6785 14.6149 32.5061 14.8419C32.8836 15.8383 32.9111 16.9483 32.5781 17.9981C32.1631 19.3064 33.0637 20.2796 33.8477 20.5158C35.2625 20.9427 36.0953 20.0864 36.373 19.249C36.4374 19.0552 36.4954 18.8578 36.5457 18.6618C36.626 18.3484 36.4371 18.0289 36.1237 17.9486C35.81 17.8684 35.4907 18.0573 35.4105 18.3707C35.3668 18.5407 35.3165 18.7119 35.2609 18.88C35.1175 19.3122 34.6488 19.5471 34.2166 19.4037C34.209 19.4013 33.454 19.1129 33.6954 18.3524C34.0158 17.3419 34.0653 16.2842 33.8519 15.2802C34.9631 15.7004 36.0279 16.2522 37.0264 16.9306C38.9054 18.2077 39.3952 20.7752 38.118 22.6545C37.3487 23.7867 34.7968 25.3223 32.3862 23.7409C29.9695 22.1558 26.8979 22.1579 24.5605 23.7464C24.3539 23.8868 24.1373 24.0067 23.9124 24.1065V23.0017C23.9124 22.3282 23.7195 21.6779 23.3505 21.0733C24.4043 20.8441 25.0916 19.8123 24.8883 18.7473C24.6497 17.4958 24.1434 16.3202 23.4106 15.2991C23.4103 15.2991 24.9484 14.7 25.5789 14.578ZM22.2067 15.6519C22.977 16.6077 23.504 17.7451 23.7372 18.967C23.8223 19.4141 23.5278 19.8474 23.0807 19.9329C23.0725 19.9344 22.2729 20.0507 22.113 19.2688C21.8964 18.2089 21.4004 17.2296 20.6937 16.4432C21.1847 16.1502 21.6901 15.8863 22.2067 15.6519ZM19.7009 17.0972C20.1813 17.5916 20.5521 18.1943 20.7849 18.8559C20.1764 18.5431 19.508 18.284 18.7945 18.0844C19.0393 17.7094 19.3445 17.3761 19.7009 17.0972ZM24.0808 5.08363C24.371 4.72565 24.8868 4.66248 25.2545 4.94019C25.6226 5.2179 25.7034 5.7309 25.4385 6.1081L22.327 10.5408L16.5231 14.4068L24.0808 5.08363ZM27.6669 8.39174C28.0505 8.1363 28.5617 8.22938 28.8303 8.60414C29.0988 8.97859 29.0234 9.49251 28.6581 9.77388L23.158 14.0143C21.7914 14.4837 20.4849 15.1355 19.2694 15.9613C18.5651 16.4401 17.9941 17.0725 17.5937 17.811C16.0281 17.5382 14.1968 17.6136 13.7643 17.6523L27.6669 8.39174ZM9.54679 20.0974C11.0159 19.2383 12.9812 18.7653 15.0812 18.7653C17.1811 18.7653 19.1464 19.2383 20.6155 20.0974C21.9858 20.8988 22.7402 21.9303 22.7402 23.0014C22.7402 24.0729 21.9855 25.1044 20.6155 25.9058C19.1464 26.7649 17.1811 27.2379 15.0812 27.2379C12.9812 27.2379 11.0159 26.7649 9.54679 25.9058C8.17686 25.1044 7.42216 24.0729 7.42216 23.0014C7.42216 21.9303 8.17686 20.8988 9.54679 20.0974ZM1.53195 28.1824C0.716823 26.9306 1.59054 25.7615 2.02694 25.4709L6.26889 22.645C6.25699 22.7631 6.25028 27.0484 6.25028 27.0484L4.25931 28.5834C3.84396 28.9035 2.34768 29.4342 1.53195 28.1824ZM4.27792 29.917C4.52359 29.8142 6.25028 28.5282 6.25028 28.5282V31.0886C6.25028 31.4408 6.30338 31.7865 6.40653 32.1229C4.66184 32.219 4.11771 31.0618 4.27792 29.917ZM20.6155 33.9927C19.1464 34.8517 17.1811 35.3251 15.0812 35.3251C12.9812 35.3251 11.0159 34.8517 9.54679 33.9927C8.17686 33.1913 7.42216 32.1598 7.42216 31.0886V25.7233C7.83262 26.1591 8.34592 26.5607 8.95536 26.9172C10.6009 27.8797 12.7765 28.4098 15.0812 28.4098C17.3859 28.4098 19.5615 27.8797 21.2073 26.9172C21.8164 26.561 22.3297 26.1594 22.7402 25.7233V31.0886C22.7402 32.1598 21.9858 33.1913 20.6155 33.9927ZM37.7649 26.1701C37.3316 26.5363 37.0825 27.0685 37.1649 27.6227C37.2409 28.1336 37.0963 28.6548 36.7682 29.0528C36.4371 29.4541 35.9485 29.6955 35.4279 29.7147C34.8441 29.7367 34.3329 30.0834 34.0933 30.6199C33.8001 31.2775 33.1452 31.7023 32.4256 31.7023C32.0361 31.7023 31.6647 31.5815 31.3516 31.3526C30.8133 30.9595 30.0897 30.9595 29.5511 31.3526C29.2377 31.5815 28.8663 31.7023 28.4772 31.7023C28.0878 31.7023 27.7164 31.5815 27.4033 31.3526C26.8646 30.9595 26.1542 30.9775 25.6027 31.3526C24.8508 31.8641 24.0833 31.6614 23.8766 31.5824C23.8998 31.4194 23.912 25.362 23.912 25.362C24.3735 25.2088 24.8114 24.9924 25.2191 24.7156C27.1631 23.3942 29.7241 23.3963 31.7432 24.7208C32.7432 25.3769 33.721 25.5939 34.577 25.5939C36.8225 25.5939 37.8406 24.5874 38.3783 24.1053C38.4531 24.3039 38.8602 25.2442 37.7649 26.1701Z" fill="white"/>
</g>
<defs>
<clipPath id="clip0">
<rect width="40" height="40" fill="white"/>
</clipPath>
</defs>
</svg>
