<svg width="14" height="14" viewBox="0 0 14 14" fill="none" xmlns="http://www.w3.org/2000/svg">
<g clip-path="url(#clip0)">
<path d="M4.46597 10.8894C3.65875 10.8894 3.00439 11.5438 3.00439 12.351C3.00439 13.1582 3.65878 13.8126 4.46597 13.8126C5.27319 13.8126 5.92754 13.1582 5.92754 12.351C5.92757 11.5438 5.27319 10.8894 4.46597 10.8894ZM4.46597 13.163C4.01752 13.163 3.65399 12.7995 3.65399 12.351C3.65399 11.9026 4.01752 11.5391 4.46597 11.5391C4.91442 11.5391 5.27795 11.9026 5.27795 12.351C5.27798 12.7995 4.91442 13.163 4.46597 13.163Z" fill="white"/>
<path d="M10.6371 10.8894C9.82989 10.8894 9.17554 11.5438 9.17554 12.351C9.17554 13.1582 9.82992 13.8126 10.6371 13.8126C11.4443 13.8126 12.0987 13.1582 12.0987 12.351C12.0987 11.5438 11.4443 10.8894 10.6371 10.8894ZM10.6371 13.163C10.1887 13.163 9.82513 12.7995 9.82513 12.351C9.82513 11.9026 10.1887 11.5391 10.6371 11.5391C11.0856 11.5391 11.4491 11.9026 11.4491 12.351C11.4491 12.7995 11.0856 13.163 10.6371 13.163Z" fill="white"/>
<path d="M13.9338 2.36353C13.8662 2.28964 13.7736 2.24339 13.674 2.23359L3.10183 2.08744L2.80951 1.19424C2.60358 0.597141 2.04444 0.194042 1.41287 0.187359H0.324798C0.145412 0.187359 0 0.33277 0 0.512157C0 0.691543 0.145412 0.836955 0.324798 0.836955H1.41287C1.76602 0.844757 2.07698 1.07152 2.1924 1.40536L4.25486 7.62523L4.09248 7.99873C3.91135 8.4658 3.96575 8.9915 4.23864 9.4116C4.50891 9.82421 4.96361 10.0788 5.45664 10.0937H11.774C11.9534 10.0937 12.0988 9.94827 12.0988 9.76888C12.0988 9.58949 11.9534 9.44408 11.774 9.44408H5.45661C5.17819 9.43712 4.9219 9.29065 4.77453 9.05432C4.62881 8.82088 4.59887 8.53329 4.69334 8.27479L4.82327 7.98248L11.6603 7.26791C12.4113 7.1852 13.029 6.63899 13.2031 5.90376L13.9826 2.63955C14.0177 2.54555 13.9991 2.43984 13.9338 2.36353ZM12.5697 5.75763C12.4643 6.23092 12.0624 6.58002 11.5791 6.61835L4.82327 7.31665L3.31295 2.73703L13.268 2.88319L12.5697 5.75763Z" fill="white"/>
</g>
<defs>
<clipPath id="clip0">
<rect width="14" height="14" fill="white"/>
</clipPath>
</defs>
</svg>
